<svg xmlns="http://www.w3.org/2000/svg" viewBox="0 0 64 64" width="64" height="64">
  <defs>
    <linearGradient id="shieldGrad" x1="0" y1="0" x2="1" y2="1">
      <stop offset="0%" stop-color="#a78bfa"/>
      <stop offset="100%" stop-color="#7c3aed"/>
    </linearGradient>
    <linearGradient id="accentGrad" x1="0" y1="0" x2="0" y2="1">
      <stop offset="0%" stop-color="#a78bfa"/>
      <stop offset="80%" stop-color="#7c3aed"/>
    </linearGradient>
  </defs>
  <!-- Shield shape -->
  <path d="M32 2 L58 16 L58 38 Q58 52 32 62 Q6 52 6 38 L6 16 Z" fill="url(#shieldGrad)" opacity="0.15" stroke="url(#accentGrad)" stroke-width="2"/>
  <!-- Inner shield -->
  <path d="M32 8 L52 19 L52 36 Q52 48 32 56 Q12 48 12 36 L12 19 Z" fill="url(#shieldGrad)" opacity="0.25"/>
  <!-- Stylized A letter -->
  <path d="M32 14 L18 50 L24 50 L27.5 40 L36.5 40 L40 50 L46 50 Z M29.5 34 L32 22 L34.5 34 Z" fill="#a78bfa"/>
  <!-- Accent highlight on A -->
  <path d="M32 14 L27.5 40 L36.5 40 Z" fill="#7c3aed" opacity="0.4"/>
</svg>
